{
	"asset":{
		"generator":"Khronos glTF Blender I/O v4.1.63",
		"version":"2.0"
	},
	"scene":0,
	"scenes":[
		{
			"name":"Scene",
			"nodes":[
				0
			]
		}
	],
	"nodes":[
		{
			"mesh":0,
			"name":"Torus.001"
		}
	],
	"materials":[
		{
			"doubleSided":true,
			"name":"Material.001",
			"pbrMetallicRoughness":{
				"baseColorFactor":[
					0.800000011920929,
					0.800000011920929,
					0.800000011920929,
					1
				],
				"metallicFactor":0,
				"roughnessFactor":0.5
			}
		}
	],
	"meshes":[
		{
			"name":"Torus.001",
			"primitives":[
				{
					"attributes":{
						"POSITION":0,
						"NORMAL":1,
						"TEXCOORD_0":2
					},
					"indices":3,
					"material":0
				}
			]
		}
	],
	"accessors":[
		{
			"bufferView":0,
			"componentType":5126,
			"count":627,
			"max":[
				0.6399999856948853,
				0.25,
				0.6399999856948853
			],
			"min":[
				-0.6399999856948853,
				-0.25,
				-0.6399999856948853
			],
			"type":"VEC3"
		},
		{
			"bufferView":1,
			"componentType":5126,
			"count":627,
			"type":"VEC3"
		},
		{
			"bufferView":2,
			"componentType":5126,
			"count":627,
			"type":"VEC2"
		},
		{
			"bufferView":3,
			"componentType":5123,
			"count":2304,
			"type":"SCALAR"
		}
	],
	"bufferViews":[
		{
			"buffer":0,
			"byteLength":7524,
			"byteOffset":0,
			"target":34962
		},
		{
			"buffer":0,
			"byteLength":7524,
			"byteOffset":7524,
			"target":34962
		},
		{
			"buffer":0,
			"byteLength":5016,
			"byteOffset":15048,
			"target":34962
		},
		{
			"buffer":0,
			"byteLength":4608,
			"byteOffset":20064,
			"target":34963
		}
	],
	"buffers":[
		{
			"byteLength":24672,
			"uri":"do.bin"
		}
	]
}
